<svg id="visual" viewBox="0 0 900 600" width="900" height="600" xmlns="http://www.w3.org/2000/svg" xmlns:xlink="http://www.w3.org/1999/xlink" version="1.1"><rect x="0" y="0" width="900" height="600" fill="#001220"></rect><path d="M0 448L21.5 436.3C43 424.7 86 401.3 128.8 385.8C171.7 370.3 214.3 362.7 257.2 364C300 365.3 343 375.7 385.8 380.5C428.7 385.3 471.3 384.7 514.2 392.8C557 401 600 418 642.8 412.8C685.7 407.7 728.3 380.3 771.2 367.3C814 354.3 857 355.7 878.5 356.3L900 357L900 601L878.5 601C857 601 814 601 771.2 601C728.3 601 685.7 601 642.8 601C600 601 557 601 514.2 601C471.3 601 428.7 601 385.8 601C343 601 300 601 257.2 601C214.3 601 171.7 601 128.8 601C86 601 43 601 21.5 601L0 601Z" fill="#fa7268"></path><path d="M0 417L21.5 417.5C43 418 86 419 128.8 428.2C171.7 437.3 214.3 454.7 257.2 455.3C300 456 343 440 385.8 436.2C428.7 432.3 471.3 440.7 514.2 439.5C557 438.3 600 427.7 642.8 428.3C685.7 429 728.3 441 771.2 438.3C814 435.7 857 418.3 878.5 409.7L900 401L900 601L878.5 601C857 601 814 601 771.2 601C728.3 601 685.7 601 642.8 601C600 601 557 601 514.2 601C471.3 601 428.7 601 385.8 601C343 601 300 601 257.2 601C214.3 601 171.7 601 128.8 601C86 601 43 601 21.5 601L0 601Z" fill="#ef5f67"></path><path d="M0 508L21.5 499.2C43 490.3 86 472.7 128.8 472.3C171.7 472 214.3 489 257.2 496.2C300 503.3 343 500.7 385.8 491.3C428.7 482 471.3 466 514.2 462C557 458 600 466 642.8 472.5C685.7 479 728.3 484 771.2 484.3C814 484.7 857 480.3 878.5 478.2L900 476L900 601L878.5 601C857 601 814 601 771.2 601C728.3 601 685.7 601 642.8 601C600 601 557 601 514.2 601C471.3 601 428.7 601 385.8 601C343 601 300 601 257.2 601C214.3 601 171.7 601 128.8 601C86 601 43 601 21.5 601L0 601Z" fill="#e34c67"></path><path d="M0 532L21.5 530.5C43 529 86 526 128.8 519.3C171.7 512.7 214.3 502.3 257.2 502.8C300 503.3 343 514.7 385.8 514.8C428.7 515 471.3 504 514.2 500C557 496 600 499 642.8 497.3C685.7 495.7 728.3 489.3 771.2 490C814 490.7 857 498.3 878.5 502.2L900 506L900 601L878.5 601C857 601 814 601 771.2 601C728.3 601 685.7 601 642.8 601C600 601 557 601 514.2 601C471.3 601 428.7 601 385.8 601C343 601 300 601 257.2 601C214.3 601 171.7 601 128.8 601C86 601 43 601 21.5 601L0 601Z" fill="#d53867"></path><path d="M0 561L21.5 562.8C43 564.7 86 568.3 128.8 562.3C171.7 556.3 214.3 540.7 257.2 538.5C300 536.3 343 547.7 385.8 549.5C428.7 551.3 471.3 543.7 514.2 540.2C557 536.7 600 537.3 642.8 538.7C685.7 540 728.3 542 771.2 543.3C814 544.7 857 545.3 878.5 545.7L900 546L900 601L878.5 601C857 601 814 601 771.2 601C728.3 601 685.7 601 642.8 601C600 601 557 601 514.2 601C471.3 601 428.7 601 385.8 601C343 601 300 601 257.2 601C214.3 601 171.7 601 128.8 601C86 601 43 601 21.5 601L0 601Z" fill="#c62368"></path></svg>